<svg xmlns="http://www.w3.org/2000/svg" viewBox="0 0 64 64" fill="none">
  <defs>
    <linearGradient id="g" x1="12" y1="10" x2="52" y2="54" gradientUnits="userSpaceOnUse">
      <stop stop-color="#8fbbff"/>
      <stop offset="1" stop-color="#86d7bd"/>
    </linearGradient>
  </defs>
  <rect x="6" y="6" width="52" height="52" rx="16" fill="#0d1117"/>
  <path d="M20 42V20h9.2c3 0 5.3.6 6.7 1.9 1.4 1.2 2.1 2.9 2.1 5 0 1.5-.4 2.8-1.2 3.8-.8 1.1-1.9 1.8-3.4 2.2l6 9.1h-5.6l-5.3-8.4H25.1V42H20Zm5.1-12h3.4c1.6 0 2.7-.3 3.4-.9.7-.6 1-1.5 1-2.7s-.3-2.1-1-2.7c-.7-.6-1.8-.9-3.4-.9h-3.4V30Z" fill="url(#g)"/>
  <path d="M38.5 41.7V28.3h4.1v1.9c.8-1.4 2-2.1 3.7-2.1 1.9 0 3.2.8 4 2.4.9-1.6 2.2-2.4 4-2.4 1.4 0 2.6.4 3.4 1.2.9.8 1.3 2 1.3 3.5v8.9h-4.2V33.5c0-.9-.2-1.5-.5-2-.3-.4-.9-.6-1.6-.6-.8 0-1.4.3-1.8.8-.4.5-.6 1.2-.6 2v8h-4.2v-8.2c0-.8-.2-1.4-.5-1.8-.3-.5-.8-.7-1.6-.7-.8 0-1.4.3-1.8.8-.4.5-.6 1.2-.6 2v7.9h-4.1Z" fill="#eef2f7" opacity=".92"/>
</svg>
